<svg width="20" height="20" viewBox="0 0 20 20" fill="none" xmlns="http://www.w3.org/2000/svg">
    <g opacity="0.2">
        <path
            d="M13 14.444C16.038 14.444 18.5 13.449 18.5 12.222C18.5 10.995 16.038 10 13 10L7.5 12.222C7.5 13.45 9.962 14.444 13 14.444Z"
            fill="#FFD233" />
        <path fill-rule="evenodd" clip-rule="evenodd"
            d="M15.195 12.222C14.5962 12.0944 13.987 12.0221 13.375 12.006L12.335 12.426C12.5503 12.438 12.772 12.444 13 12.444C13.833 12.444 14.58 12.357 15.195 12.222ZM9.031 13.761C8.477 13.528 8.048 13.246 7.787 12.933C7.601 12.71 7.5 12.471 7.5 12.223L13 10C16.038 10 18.5 10.995 18.5 12.222C18.5 13.45 16.038 14.444 13 14.444C11.44 14.444 10.032 14.182 9.031 13.761Z"
            fill="#FFD233" />
        <path d="M13 18C16.038 18 18.5 17.005 18.5 15.778V12H7.5V15.778C7.5 17.005 9.962 18 13 18Z"
            fill="#FFD233" />
        <path fill-rule="evenodd" clip-rule="evenodd"
            d="M16.5 15.324C16.3839 15.3886 16.2636 15.4454 16.14 15.494C15.437 15.779 14.327 16 13 16C11.673 16 10.563 15.779 9.86 15.495C9.73634 15.446 9.61608 15.3889 9.5 15.324V14H16.5V15.324ZM18.5 12V15.778C18.5 17.005 16.038 18 13 18C9.962 18 7.5 17.005 7.5 15.778V12H18.5Z"
            fill="#FFD233" />
        <path
            d="M13.5 6.222C13.5 7.45 11.038 8.444 8 8.444C4.962 8.444 2.5 7.45 2.5 6.222C2.5 4.994 4.962 4 8 4C11.038 4 13.5 4.995 13.5 6.222Z"
            fill="#FFD233" />
        <path fill-rule="evenodd" clip-rule="evenodd"
            d="M10.195 6.222C9.47327 6.07038 8.73747 5.99597 8 6C7.167 6 6.42 6.087 5.805 6.222C6.42 6.357 7.167 6.444 8 6.444C8.833 6.444 9.58 6.357 10.195 6.222ZM8 8.444C11.038 8.444 13.5 7.45 13.5 6.222C13.5 4.994 11.038 4 8 4C4.962 4 2.5 4.995 2.5 6.222C2.5 7.45 4.962 8.444 8 8.444Z"
            fill="#FFD233" />
        <path d="M8 12C11.038 12 13.5 11.005 13.5 9.778V6.5H2.5V9.778C2.5 11.005 4.962 12 8 12Z"
            fill="#FFD233" />
        <path fill-rule="evenodd" clip-rule="evenodd"
            d="M11.5 9.324C11.3839 9.38858 11.2636 9.44537 11.14 9.494C10.437 9.78 9.327 10 8 10C6.673 10 5.563 9.779 4.86 9.495C4.73634 9.44604 4.61608 9.38892 4.5 9.324V8.5H11.5V9.324ZM13.5 6.5V9.778C13.5 11.005 11.038 12 8 12C4.962 12 2.5 11.005 2.5 9.778V6.5H13.5Z"
            fill="#FFD233" />
    </g>
    <path fill-rule="evenodd" clip-rule="evenodd"
        d="M15.702 10.115C14.78 9.742 13.47 9.5 12 9.5V8.5C13.567 8.5 15.008 8.756 16.076 9.187C16.609 9.403 17.074 9.671 17.413 9.996C17.753 10.321 18 10.736 18 11.222C18 11.709 17.754 12.123 17.413 12.449C17.073 12.773 16.609 13.042 16.076 13.257C15.008 13.689 13.566 13.944 12 13.944C10.433 13.944 8.992 13.689 7.924 13.257C7.391 13.042 6.926 12.773 6.587 12.449C6.247 12.123 6 11.709 6 11.222H7C7 11.349 7.062 11.519 7.278 11.726C7.494 11.933 7.836 12.143 8.298 12.33C9.221 12.703 10.529 12.944 12 12.944C13.47 12.944 14.78 12.703 15.702 12.33C16.164 12.143 16.505 11.933 16.722 11.726C16.939 11.519 17 11.349 17 11.222C17 11.095 16.938 10.925 16.722 10.719C16.505 10.511 16.164 10.301 15.702 10.115Z"
        fill="#FFD233" />
    <path fill-rule="evenodd" clip-rule="evenodd"
        d="M6.5 11.167C6.63261 11.167 6.75979 11.2197 6.85355 11.3134C6.94732 11.4072 7 11.5344 7 11.667V14.777C7 14.905 7.062 15.075 7.278 15.281C7.495 15.489 7.836 15.699 8.298 15.886C9.221 16.258 10.529 16.5 12 16.5C13.47 16.5 14.78 16.258 15.702 15.886C16.164 15.699 16.505 15.489 16.722 15.281C16.938 15.075 17 14.905 17 14.778V11.667C17 11.5344 17.0527 11.4072 17.1464 11.3134C17.2402 11.2197 17.3674 11.167 17.5 11.167C17.6326 11.167 17.7598 11.2197 17.8536 11.3134C17.9473 11.4072 18 11.5344 18 11.667V14.777C18 15.265 17.754 15.679 17.413 16.004C17.072 16.329 16.609 16.597 16.076 16.813C15.008 17.244 13.566 17.5 12 17.5C10.433 17.5 8.992 17.244 7.924 16.813C7.391 16.598 6.926 16.329 6.587 16.004C6.247 15.679 6 15.264 6 14.778V11.667C6 11.5344 6.05268 11.4072 6.14645 11.3134C6.24021 11.2197 6.36739 11.167 6.5 11.167Z"
        fill="#FFD233" />
    <path fill-rule="evenodd" clip-rule="evenodd"
        d="M8.7 16.726V13H9.7V16.726H8.7ZM13.1 16.5V13.5H14.1V16.5H13.1ZM2.278 4.719C2.062 4.925 2 5.095 2 5.222C2 5.349 2.062 5.519 2.278 5.726C2.494 5.933 2.836 6.143 3.298 6.33C4.221 6.703 5.529 6.944 7 6.944C8.47 6.944 9.78 6.703 10.702 6.33C11.164 6.143 11.505 5.933 11.722 5.726C11.939 5.519 12 5.349 12 5.222C12 5.095 11.938 4.925 11.722 4.719C11.505 4.511 11.164 4.301 10.702 4.114C9.779 3.742 8.47 3.5 7 3.5C5.53 3.5 4.22 3.742 3.298 4.114C2.836 4.301 2.495 4.511 2.278 4.719ZM2.924 3.187C3.992 2.756 5.434 2.5 7 2.5C8.567 2.5 10.008 2.756 11.076 3.187C11.609 3.403 12.074 3.671 12.413 3.996C12.753 4.321 13 4.736 13 5.222C13 5.709 12.754 6.123 12.413 6.449C12.073 6.773 11.609 7.042 11.076 7.257C10.008 7.689 8.566 7.944 7 7.944C5.433 7.944 3.992 7.689 2.924 7.257C2.391 7.042 1.926 6.773 1.587 6.449C1.247 6.123 1 5.709 1 5.222C1 4.736 1.246 4.322 1.587 3.996C1.928 3.67 2.391 3.403 2.924 3.187Z"
        fill="#FFD233" />
    <path fill-rule="evenodd" clip-rule="evenodd"
        d="M1.5 5.16699C1.63261 5.16699 1.75979 5.21967 1.85355 5.31344C1.94732 5.40721 2 5.53438 2 5.66699V8.77699C2 8.90499 2.062 9.07499 2.278 9.28099C2.495 9.48899 2.836 9.69899 3.298 9.88599C4.221 10.258 5.529 10.5 7 10.5C8.47 10.5 9.78 10.258 10.702 9.88599C11.164 9.69899 11.505 9.48899 11.722 9.28099C11.938 9.07499 12 8.90499 12 8.77799V5.66699C12 5.53438 12.0527 5.40721 12.1464 5.31344C12.2402 5.21967 12.3674 5.16699 12.5 5.16699C12.6326 5.16699 12.7598 5.21967 12.8536 5.31344C12.9473 5.40721 13 5.53438 13 5.66699V8.77699C13 9.26499 12.754 9.67899 12.413 10.004C12.072 10.329 11.609 10.598 11.076 10.813C10.008 11.244 8.566 11.5 7 11.5C5.433 11.5 3.992 11.244 2.924 10.813C2.391 10.597 1.926 10.329 1.587 10.004C1.247 9.67999 1 9.26399 1 8.77799V5.66699C1 5.53438 1.05268 5.40721 1.14645 5.31344C1.24021 5.21967 1.36739 5.16699 1.5 5.16699Z"
        fill="#FFD233" />
    <path fill-rule="evenodd" clip-rule="evenodd"
        d="M3.69995 10.5V7.11304H4.69995V10.5H3.69995ZM8.09995 10.5V7.50004H9.09995V10.5H8.09995Z"
        fill="#FFD233" />
</svg>